<svg width="44" height="53" viewBox="0 0 44 53" fill="none" xmlns="http://www.w3.org/2000/svg">
<path d="M42.9621 30.378C42.9621 18.7905 33.5686 9.39696 21.9811 9.39696C10.3935 9.39696 1 18.7905 1 30.378C1 41.9655 10.3935 51.3591 21.9811 51.3591C33.5686 51.3591 42.9621 41.9655 42.9621 30.378Z" fill="white" stroke="url(#paint0_linear_423_6952)" stroke-width="1.44509" stroke-miterlimit="10"/>
<path d="M4.7367 26.9678L6.10319 26.7079C6.10319 26.7079 6.44179 21.1331 9.50127 17.0941C10.771 15.4192 6.15761 2.0022 5.90366 0.581295C5.89156 0.502692 8.10455 0.170139 8.10455 0.170139C8.10455 0.170139 24.4601 -2.78656 19.3811 15.9513L21.969 19.1438C21.969 19.1438 28.7289 15.4192 36.2748 14.3913C36.2748 14.3913 42.6356 18.5452 39.1408 22.9349C39.1408 22.9349 44.8244 26.7199 38.5966 32.7603C38.5966 32.7603 43.7965 37.0472 38.125 41.4611C38.125 41.4611 38.2399 45.0708 33.6567 47.6103C33.6567 47.6103 32.006 47.9791 31.4558 48.0215C28.2633 48.2875 18.5467 48.8498 16.0072 48.7591C13.0263 48.6503 10.3659 46.3285 10.3659 46.3285L9.08407 45.9717L4.73065 26.9558L4.7367 26.9678Z" fill="url(#paint1_linear_423_6952)"/>
<path d="M3.90833 27.1251C4.99669 22.6628 6.15155 22.4814 7.30642 17.5113C8.8543 10.8421 7.43339 4.77751 5.91574 0.587344C5.91574 0.587344 22.2713 -2.36935 17.1923 16.3685L19.7802 19.561C19.7802 19.561 26.5401 15.8364 34.086 14.8085C34.086 14.8085 40.4468 18.9624 36.952 23.3521C36.952 23.3521 42.6356 27.1371 36.4078 33.1775C36.4078 33.1775 41.6077 37.4644 35.9362 41.8783C35.9362 41.8783 36.0511 45.488 31.4739 48.0275C31.4739 48.0275 16.7993 49.2852 13.8184 49.1824C13.1896 49.1582 8.1771 46.7517 8.1771 46.7517C5.1418 45.0043 2.32417 33.6552 3.90833 27.119V27.1251Z" fill="url(#paint2_linear_423_6952)"/>
<path d="M4.77296 29.0297C4.77296 27.9232 4.8818 26.853 5.04505 25.7767C5.20831 24.7065 5.44412 23.6423 5.75853 22.6023C6.07294 21.5623 6.47201 20.5405 6.97386 19.5731C7.47571 18.5996 8.0864 17.6805 8.81197 16.8522L8.73941 17.082L7.09479 2.12312C7.07665 1.95987 7.18548 1.8208 7.34269 1.79662C8.15896 1.67569 8.95104 1.65755 9.75521 1.69987C10.5533 1.74825 11.3575 1.87522 12.1315 2.11103C12.9054 2.34079 13.6612 2.68544 14.3263 3.16311C14.9975 3.63473 15.5719 4.24541 16.0132 4.94075C16.89 6.34352 17.1863 8.00024 17.2044 9.59044C17.2104 11.1927 16.9565 12.7709 16.5937 14.3127V14.2704L16.376 16.6103L16.2914 16.3745C16.9625 17.088 17.5309 17.8438 18.069 18.6419C18.6011 19.4401 19.0788 20.2684 19.4899 21.133C20.3243 22.8563 20.8927 24.7186 21.0922 26.6353C21.195 27.5906 21.195 28.558 21.1043 29.5194C21.0499 29.9971 20.9834 30.4748 20.8927 30.9403C20.8564 31.1761 20.8081 31.412 20.7597 31.6417C20.7053 31.8775 20.669 32.1133 20.6025 32.3431C20.3788 33.2742 20.0402 34.1812 19.5988 35.0338C19.1513 35.8803 18.6253 36.7086 17.8755 37.3133C18.456 36.5635 18.8309 35.7049 19.1634 34.8403C19.496 33.9756 19.7439 33.0808 19.9797 32.1859C20.2095 31.291 20.409 30.372 20.4997 29.4529C20.5904 28.5339 20.5843 27.6088 20.4936 26.6897C20.3002 24.8516 19.756 23.0558 18.9458 21.387C18.5467 20.5465 18.0811 19.7424 17.5672 18.9684C17.0532 18.2005 16.4788 17.4447 15.8621 16.7857C15.8016 16.7131 15.7774 16.6285 15.7835 16.5499L16.0072 14.2099C16.0072 14.2099 16.0072 14.1797 16.0132 14.1676C16.37 12.662 16.6179 11.1262 16.6118 9.59044C16.5998 8.06675 16.3095 6.51887 15.5114 5.24912C15.1123 4.62029 14.5923 4.07007 13.9877 3.64077C13.377 3.20543 12.6877 2.89102 11.9622 2.67335C10.5171 2.24405 8.9329 2.1715 7.44548 2.37707L7.68734 2.05057L9.33801 17.0033C9.3501 17.088 9.31987 17.1726 9.26545 17.2271C8.57616 18.0191 7.98966 18.8959 7.51199 19.827C7.02828 20.7582 6.64131 21.7498 6.33294 22.7595C6.02457 23.7693 5.80085 24.8093 5.6376 25.8553C5.48039 26.9013 5.37761 27.9655 5.37156 29.0115" fill="white"/>
<path d="M23.1178 27.0404C23.0271 27.0585 22.9364 27.0344 22.8638 26.9678C20.0825 24.4949 20.409 20.6796 20.4271 20.5163C20.4332 20.4256 20.4876 20.347 20.5602 20.2926C27.8763 15.5764 34.1162 15.2318 34.1767 15.2257C34.2432 15.2257 34.3036 15.2378 34.3581 15.2741C36.3655 16.6285 37.4962 18.1522 37.7199 19.7968C37.992 21.8163 36.7887 23.2493 36.7343 23.3098C36.698 23.3581 36.6436 23.3884 36.5831 23.4005L23.1299 27.0223C23.1299 27.0223 23.1178 27.0223 23.1057 27.0223L23.1178 27.0404ZM21.0136 20.7159C20.9834 21.3991 20.9955 24.4042 23.142 26.4176L36.3413 22.8623C36.559 22.5721 37.345 21.3991 37.1334 19.8754C36.9338 18.4303 35.918 17.0699 34.1102 15.8303C33.306 15.8969 27.6345 16.4834 21.0076 20.7159H21.0136Z" fill="white"/>
<path d="M35.0836 33.4073C29.9079 34.3808 24.5629 33.7277 24.5085 33.7217C24.4722 33.7217 24.4359 33.7036 24.3996 33.6854C21.0802 31.8594 22.7066 27.6269 22.7248 27.5846C22.755 27.506 22.8215 27.4455 22.9001 27.4153C28.8135 25.2144 36.819 23.6605 36.8976 23.6484C36.9943 23.6302 37.085 23.6605 37.1576 23.727C38.4334 24.9363 39.0561 26.2967 39.0017 27.772C38.8989 30.7469 36.0994 33.0929 35.9846 33.1957C35.9483 33.2259 35.906 33.244 35.8576 33.2561C35.5976 33.3105 35.3436 33.365 35.0836 33.4133V33.4073ZM24.6415 33.1352C25.2522 33.2078 30.6698 33.7761 35.6581 32.6817C36.039 32.3492 38.3245 30.239 38.4092 27.7418C38.4515 26.4902 37.9315 25.3172 36.8552 24.2591C35.7367 24.4828 28.6382 25.9279 23.2327 27.9232C23.0029 28.5883 22.0959 31.6961 24.6354 33.1352H24.6415Z" fill="white"/>
<path d="M35.0232 41.7876C28.5051 43.015 22.7187 40.8806 22.6643 40.8565C22.5857 40.8262 22.5252 40.7658 22.495 40.6872C21.1164 37.144 23.2448 35.0519 23.3355 34.9673C23.3717 34.931 23.4201 34.9068 23.4685 34.8947C28.227 33.758 35.525 33.6915 35.5976 33.6915C35.6641 33.6915 35.7306 33.7156 35.785 33.7519C37.2422 34.8886 37.9738 36.1523 37.9496 37.5007C37.9134 39.8648 35.5855 41.5941 35.4888 41.6667C35.4525 41.6909 35.4162 41.709 35.3739 41.715C35.259 41.7392 35.1441 41.7634 35.0292 41.7816L35.0232 41.7876ZM22.9969 40.3486C23.8736 40.6509 29.2549 42.356 35.1804 41.1527C35.5069 40.8988 37.3208 39.3872 37.3511 37.4947C37.3692 36.364 36.7404 35.2877 35.4948 34.284C34.5939 34.2961 28.0698 34.4231 23.6862 35.451C23.3838 35.7775 21.9569 37.5188 22.9969 40.3486Z" fill="white"/>
<path d="M30.3372 47.8643C27.4773 48.4024 23.2206 48.2754 23.0211 48.2694C22.9666 48.2694 22.9122 48.2512 22.8699 48.221C21.9267 47.6103 21.3583 46.8061 21.189 45.8266C20.8262 43.7285 22.4225 41.6123 22.489 41.5216C22.5615 41.4248 22.6825 41.3885 22.7973 41.4127C28.6503 42.8457 34.7692 42.1927 34.8297 42.1867C34.9264 42.1746 35.0232 42.2109 35.0837 42.2834C35.1441 42.356 35.1743 42.4527 35.1502 42.5495C35.1078 42.7248 34.1162 46.8545 31.2321 47.6587C30.9539 47.7373 30.6577 47.8038 30.3372 47.8643ZM23.1238 47.6768C23.8131 47.695 28.5838 47.7856 31.0749 47.0903C33.1307 46.5159 34.1465 43.8434 34.4609 42.8155C32.9614 42.9364 27.8461 43.2206 22.8518 42.0355C22.5071 42.5374 21.5034 44.182 21.7755 45.7238C21.9146 46.5038 22.368 47.1629 23.1238 47.6768Z" fill="white"/>
<path d="M8.33431 45.4034C8.33431 45.4034 10.6138 47.3261 13.6249 47.7917C16.6784 48.2573 22.3559 47.2596 22.4164 47.2536L22.5192 47.8401C22.2834 47.8824 16.6844 48.8619 13.5342 48.3842C10.7347 47.9549 8.61245 46.395 8.07432 45.9657" fill="white"/>
<path d="M9.21104 8.85884C8.61244 8.97372 8.11664 8.82256 8.0864 8.81047L8.15291 8.59885C8.15291 8.59885 9.21104 8.9193 10.0575 8.23001C11.0008 7.45607 11.3515 5.70261 11.0794 3.15103C10.8254 3.02405 9.55568 2.49801 7.53618 3.1873L7.46362 2.97568C9.82777 2.17151 11.1822 2.95149 11.2366 2.98173C11.2668 2.99987 11.285 3.0301 11.291 3.06638C11.5873 5.76912 11.2184 7.56491 10.1906 8.40536C9.8701 8.6714 9.5194 8.80442 9.20499 8.85884H9.21104Z" fill="white"/>
<path d="M23.3294 19.0229C23.3536 19.6456 23.4201 20.2624 23.529 20.8731C23.6317 21.4837 23.7708 22.0823 23.9643 22.6688C24.0429 22.9651 24.1578 23.2553 24.2606 23.5456C24.3815 23.8298 24.4964 24.1139 24.6354 24.3921C24.8894 24.9544 25.222 25.4744 25.5545 26.0065C25.1494 25.5348 24.7685 25.0269 24.4782 24.4707C24.1699 23.9205 23.9401 23.334 23.7466 22.7354C23.5713 22.1307 23.4262 21.52 23.3536 20.8972C23.2811 20.2745 23.2569 19.6456 23.3234 19.0229H23.3294Z" fill="white"/>
<path d="M26.0563 32.8812C25.7843 32.5064 25.5847 32.0831 25.4154 31.6538C25.2461 31.2245 25.1191 30.771 25.0345 30.3115C24.9559 29.852 24.9015 29.3925 24.9136 28.9269C24.9136 28.6971 24.9317 28.4613 24.9438 28.2315C24.968 28.0018 25.0103 27.772 25.0526 27.5483C25.0526 28.0078 25.0466 28.4674 25.0829 28.9208C25.1131 29.3743 25.1736 29.8278 25.2522 30.2752C25.3247 30.7227 25.4457 31.1641 25.5726 31.5994C25.7057 32.0347 25.8629 32.464 26.0563 32.8812Z" fill="white"/>
<path d="M25.101 40.3667C24.8591 40.0583 24.7685 39.6593 24.7201 39.2783C24.6778 38.8914 24.6899 38.4984 24.7382 38.1174C24.7624 37.9239 24.8047 37.7365 24.835 37.543C24.8833 37.3556 24.9257 37.1681 24.9801 36.9868C25.0405 36.8054 25.095 36.6179 25.1615 36.4426C25.2401 36.2672 25.3066 36.0858 25.3912 35.9105L25.1494 37.0291C25.0768 37.404 25.0043 37.7728 24.9619 38.1477C24.9075 38.5225 24.8894 38.8974 24.8954 39.2723C24.9075 39.6472 24.9438 40.0281 25.1071 40.3727L25.101 40.3667Z" fill="white"/>
<path d="M23.8615 47.1266C23.6438 46.7819 23.5773 46.3587 23.5531 45.9536C23.529 45.5424 23.5713 45.1373 23.6559 44.7383C23.7345 44.3392 23.8555 43.9462 24.0006 43.5713C24.0792 43.3839 24.1578 43.1964 24.2424 43.015C24.3392 42.8336 24.4238 42.6522 24.5266 42.4829L24.1638 43.6318C24.061 44.0187 23.9522 44.3997 23.8796 44.7866C23.795 45.1736 23.7527 45.5666 23.7285 45.9596C23.7164 46.1592 23.7285 46.3526 23.7466 46.5522C23.7648 46.7517 23.795 46.9452 23.8675 47.1326L23.8615 47.1266Z" fill="white"/>
<path d="M10.3719 7.93977C10.1724 7.23234 9.86405 6.80909 9.45289 6.68212C8.78778 6.47654 8.03803 7.10537 8.02594 7.11141L7.83245 6.8877C7.86873 6.85747 8.70918 6.15003 9.53149 6.39794C10.0454 6.55514 10.4264 7.0449 10.6501 7.86117L10.3659 7.93977H10.3719Z" fill="white"/>
<path style="mix-blend-mode:multiply" opacity="0.5" fill-rule="evenodd" clip-rule="evenodd" d="M19.7741 19.561C19.7741 19.561 16.63 18.0978 12.5124 18.5391C12.5124 18.5391 16.2733 16.0843 19.7741 19.561Z" fill="url(#paint3_linear_423_6952)"/>
<path style="mix-blend-mode:multiply" opacity="0.5" d="M19.3932 15.9513L17.1923 16.3624C17.1923 16.3624 18.982 11.0597 17.7546 6.10772L19.7318 5.73889C19.7318 5.73889 21.4308 9.46348 19.3932 15.9513Z" fill="url(#paint4_linear_423_6952)"/>
<path style="mix-blend-mode:multiply" opacity="0.5" d="M39.1468 22.9409L36.9459 23.3521C36.9459 23.3521 38.5059 22.0279 37.8348 19.3615L40.0357 18.9503C40.0357 18.9503 40.6705 21.2238 39.1468 22.9409Z" fill="url(#paint5_linear_423_6952)"/>
<path style="mix-blend-mode:multiply" opacity="0.5" d="M36.4017 33.1775L38.6026 32.7664C38.6026 32.7664 41.1724 30.5836 41.4747 27.893L39.2738 28.3041C39.2738 28.3041 39.2677 30.6441 36.4017 33.1775Z" fill="url(#paint6_linear_423_6952)"/>
<path style="mix-blend-mode:multiply" opacity="0.5" d="M35.9301 41.8783L38.131 41.4672C38.131 41.4672 40.4347 39.9555 40.7612 37.4281L38.6147 37.8333C38.6147 37.8333 38.7599 39.6593 35.9301 41.8844V41.8783Z" fill="url(#paint7_linear_423_6952)"/>
<defs>
<linearGradient id="paint0_linear_423_6952" x1="0.280477" y1="30.378" x2="43.6877" y2="30.378" gradientUnits="userSpaceOnUse">
<stop stop-color="#E27B20"/>
<stop offset="0.42" stop-color="#E38320"/>
<stop offset="0.97" stop-color="#E48920"/>
</linearGradient>
<linearGradient id="paint1_linear_423_6952" x1="27.2902" y1="48.8688" x2="17.7968" y2="-1.65528" gradientUnits="userSpaceOnUse">
<stop stop-color="#BC3D2C"/>
<stop offset="1" stop-color="#DF6818"/>
</linearGradient>
<linearGradient id="paint2_linear_423_6952" x1="1.67259" y1="28.9189" x2="37.7969" y2="19.1988" gradientUnits="userSpaceOnUse">
<stop stop-color="#E27B20"/>
<stop offset="0.42" stop-color="#E38320"/>
<stop offset="0.97" stop-color="#E48920"/>
</linearGradient>
<linearGradient id="paint3_linear_423_6952" x1="12.6941" y1="19.4966" x2="19.522" y2="18.2138" gradientUnits="userSpaceOnUse">
<stop stop-color="white"/>
<stop offset="0.99" stop-color="#CB7488"/>
</linearGradient>
<linearGradient id="paint4_linear_423_6952" x1="19.4491" y1="15.9266" x2="17.607" y2="6.12156" gradientUnits="userSpaceOnUse">
<stop stop-color="#A85F87"/>
<stop offset="1" stop-color="white"/>
</linearGradient>
<linearGradient id="paint5_linear_423_6952" x1="38.8376" y1="22.9828" x2="38.1432" y2="19.2866" gradientUnits="userSpaceOnUse">
<stop stop-color="#A85F87"/>
<stop offset="1" stop-color="white"/>
</linearGradient>
<linearGradient id="paint6_linear_423_6952" x1="39.3298" y1="32.6108" x2="38.5438" y2="28.4273" gradientUnits="userSpaceOnUse">
<stop stop-color="#A85F87"/>
<stop offset="1" stop-color="white"/>
</linearGradient>
<linearGradient id="paint7_linear_423_6952" x1="38.6643" y1="41.3489" x2="38.0213" y2="37.926" gradientUnits="userSpaceOnUse">
<stop stop-color="#A85F87"/>
<stop offset="1" stop-color="white"/>
</linearGradient>
</defs>
</svg>
